<mxfile host="app.diagrams.net" modified="2023-01-27T08:47:17.992Z" agent="5.0 (Windows NT 10.0; Win64; x64) AppleWebKit/537.36 (KHTML, like Gecko) Chrome/109.0.0.0 Safari/537.36" etag="QIj0iI3PyU0ZeNvUulc5" version="20.8.11" type="github" pages="5">
  <diagram name="第 1 页" id="qnIHK_i1wZifL5f9pIzR">
    <mxGraphModel dx="1259" dy="701" grid="0" gridSize="10" guides="1" tooltips="1" connect="1" arrows="1" fold="1" page="1" pageScale="1" pageWidth="827" pageHeight="1169" math="0" shadow="0">
      <root>
        <mxCell id="0" />
        <mxCell id="1" parent="0" />
        <mxCell id="X8hY83EV3L3QtJoclmcm-1" value="" style="rounded=0;whiteSpace=wrap;html=1;" vertex="1" parent="1">
          <mxGeometry x="200" y="320" width="400" height="280" as="geometry" />
        </mxCell>
        <mxCell id="X8hY83EV3L3QtJoclmcm-2" value="vpc-etcd" style="shape=cylinder3;whiteSpace=wrap;html=1;boundedLbl=1;backgroundOutline=1;size=15;rounded=0;" vertex="1" parent="1">
          <mxGeometry x="200" y="160" width="160" height="60" as="geometry" />
        </mxCell>
        <mxCell id="X8hY83EV3L3QtJoclmcm-3" value="alb-etcd" style="shape=cylinder3;whiteSpace=wrap;html=1;boundedLbl=1;backgroundOutline=1;size=15;rounded=0;" vertex="1" parent="1">
          <mxGeometry x="440" y="160" width="160" height="60" as="geometry" />
        </mxCell>
        <mxCell id="X8hY83EV3L3QtJoclmcm-4" value="" style="rounded=0;whiteSpace=wrap;html=1;" vertex="1" parent="1">
          <mxGeometry x="240" y="360" width="160" height="170" as="geometry" />
        </mxCell>
        <mxCell id="X8hY83EV3L3QtJoclmcm-5" value="l4lb-healthcheck" style="rounded=0;whiteSpace=wrap;html=1;" vertex="1" parent="1">
          <mxGeometry x="440" y="420" width="120" height="50" as="geometry" />
        </mxCell>
        <mxCell id="X8hY83EV3L3QtJoclmcm-6" value="ttgw" style="rounded=0;whiteSpace=wrap;html=1;" vertex="1" parent="1">
          <mxGeometry x="240" y="570" width="320" height="30" as="geometry" />
        </mxCell>
        <mxCell id="X8hY83EV3L3QtJoclmcm-7" value="接口适配层" style="rounded=0;whiteSpace=wrap;html=1;" vertex="1" parent="1">
          <mxGeometry x="240" y="360" width="160" height="30" as="geometry" />
        </mxCell>
        <mxCell id="X8hY83EV3L3QtJoclmcm-8" value="数据面接口" style="rounded=0;whiteSpace=wrap;html=1;" vertex="1" parent="1">
          <mxGeometry x="240" y="500" width="160" height="30" as="geometry" />
        </mxCell>
        <mxCell id="X8hY83EV3L3QtJoclmcm-9" value="Agent统一接口" style="rounded=0;whiteSpace=wrap;html=1;" vertex="1" parent="1">
          <mxGeometry x="240" y="390" width="160" height="30" as="geometry" />
        </mxCell>
        <mxCell id="X8hY83EV3L3QtJoclmcm-10" value="Agent数据模型" style="rounded=0;whiteSpace=wrap;html=1;" vertex="1" parent="1">
          <mxGeometry x="240" y="420" width="90" height="80" as="geometry" />
        </mxCell>
        <mxCell id="X8hY83EV3L3QtJoclmcm-11" value="数据面&lt;br&gt;一致性校验" style="rounded=0;whiteSpace=wrap;html=1;" vertex="1" parent="1">
          <mxGeometry x="330" y="460" width="70" height="40" as="geometry" />
        </mxCell>
        <mxCell id="X8hY83EV3L3QtJoclmcm-12" value="Agent&lt;br&gt;一致性校验" style="rounded=0;whiteSpace=wrap;html=1;" vertex="1" parent="1">
          <mxGeometry x="330" y="420" width="70" height="40" as="geometry" />
        </mxCell>
        <mxCell id="X8hY83EV3L3QtJoclmcm-13" value="" style="endArrow=classic;html=1;rounded=0;exitX=0.25;exitY=0;exitDx=0;exitDy=0;entryX=0.5;entryY=1;entryDx=0;entryDy=0;entryPerimeter=0;" edge="1" parent="1" source="X8hY83EV3L3QtJoclmcm-7" target="X8hY83EV3L3QtJoclmcm-2">
          <mxGeometry width="50" height="50" relative="1" as="geometry">
            <mxPoint x="90" y="290" as="sourcePoint" />
            <mxPoint x="190" y="310" as="targetPoint" />
          </mxGeometry>
        </mxCell>
        <mxCell id="X8hY83EV3L3QtJoclmcm-21" value="watch" style="edgeLabel;html=1;align=center;verticalAlign=middle;resizable=0;points=[];rounded=0;" vertex="1" connectable="0" parent="X8hY83EV3L3QtJoclmcm-13">
          <mxGeometry x="0.2091" y="1" relative="1" as="geometry">
            <mxPoint x="21" as="offset" />
          </mxGeometry>
        </mxCell>
        <mxCell id="X8hY83EV3L3QtJoclmcm-14" value="" style="endArrow=classic;html=1;exitX=0.75;exitY=0;exitDx=0;exitDy=0;entryX=0.545;entryY=1.047;entryDx=0;entryDy=0;entryPerimeter=0;rounded=1;" edge="1" parent="1" source="X8hY83EV3L3QtJoclmcm-7" target="X8hY83EV3L3QtJoclmcm-3">
          <mxGeometry width="50" height="50" relative="1" as="geometry">
            <mxPoint x="390" y="370" as="sourcePoint" />
            <mxPoint x="440" y="320" as="targetPoint" />
            <Array as="points">
              <mxPoint x="360" y="280" />
              <mxPoint x="527" y="280" />
            </Array>
          </mxGeometry>
        </mxCell>
        <mxCell id="X8hY83EV3L3QtJoclmcm-20" value="watch" style="edgeLabel;html=1;align=center;verticalAlign=middle;resizable=0;points=[];rounded=0;" vertex="1" connectable="0" parent="X8hY83EV3L3QtJoclmcm-14">
          <mxGeometry x="-0.0269" y="3" relative="1" as="geometry">
            <mxPoint x="12" y="-7" as="offset" />
          </mxGeometry>
        </mxCell>
        <mxCell id="X8hY83EV3L3QtJoclmcm-16" value="" style="endArrow=classic;startArrow=classic;html=1;rounded=0;entryX=1;entryY=0.5;entryDx=0;entryDy=0;" edge="1" parent="1" source="X8hY83EV3L3QtJoclmcm-5" target="X8hY83EV3L3QtJoclmcm-4">
          <mxGeometry width="50" height="50" relative="1" as="geometry">
            <mxPoint x="720" y="250" as="sourcePoint" />
            <mxPoint x="440" y="300" as="targetPoint" />
          </mxGeometry>
        </mxCell>
        <mxCell id="X8hY83EV3L3QtJoclmcm-18" value="http" style="edgeLabel;html=1;align=center;verticalAlign=middle;resizable=0;points=[];rounded=0;" vertex="1" connectable="0" parent="X8hY83EV3L3QtJoclmcm-16">
          <mxGeometry x="0.7" y="-1" relative="1" as="geometry">
            <mxPoint x="14" y="-14" as="offset" />
          </mxGeometry>
        </mxCell>
        <mxCell id="X8hY83EV3L3QtJoclmcm-17" value="" style="endArrow=classic;html=1;exitX=0.5;exitY=1;exitDx=0;exitDy=0;entryX=0.5;entryY=0;entryDx=0;entryDy=0;startArrow=classic;startFill=1;rounded=1;" edge="1" parent="1" source="X8hY83EV3L3QtJoclmcm-8" target="X8hY83EV3L3QtJoclmcm-6">
          <mxGeometry width="50" height="50" relative="1" as="geometry">
            <mxPoint x="730" y="450" as="sourcePoint" />
            <mxPoint x="700" y="560" as="targetPoint" />
            <Array as="points">
              <mxPoint x="320" y="550" />
              <mxPoint x="400" y="550" />
            </Array>
          </mxGeometry>
        </mxCell>
        <mxCell id="X8hY83EV3L3QtJoclmcm-19" value="Unix Domain Socket" style="edgeLabel;html=1;align=center;verticalAlign=middle;resizable=0;points=[];rounded=0;" vertex="1" connectable="0" parent="X8hY83EV3L3QtJoclmcm-17">
          <mxGeometry x="0.3501" relative="1" as="geometry">
            <mxPoint y="-10" as="offset" />
          </mxGeometry>
        </mxCell>
        <mxCell id="X8hY83EV3L3QtJoclmcm-22" value="" style="endArrow=classic;html=1;entryX=0.75;entryY=0;entryDx=0;entryDy=0;exitX=0.5;exitY=1;exitDx=0;exitDy=0;rounded=1;" edge="1" parent="1" source="X8hY83EV3L3QtJoclmcm-5" target="X8hY83EV3L3QtJoclmcm-6">
          <mxGeometry width="50" height="50" relative="1" as="geometry">
            <mxPoint x="388" y="418" as="sourcePoint" />
            <mxPoint x="438" y="368" as="targetPoint" />
            <Array as="points">
              <mxPoint x="500" y="520" />
              <mxPoint x="480" y="520" />
            </Array>
          </mxGeometry>
        </mxCell>
        <mxCell id="X8hY83EV3L3QtJoclmcm-23" value="Socket&lt;br&gt;With&lt;br&gt;Special&lt;br&gt;Option" style="edgeLabel;html=1;align=center;verticalAlign=middle;resizable=0;points=[];" vertex="1" connectable="0" parent="X8hY83EV3L3QtJoclmcm-22">
          <mxGeometry x="-0.4106" y="-1" relative="1" as="geometry">
            <mxPoint x="21" y="4" as="offset" />
          </mxGeometry>
        </mxCell>
      </root>
    </mxGraphModel>
  </diagram>
  <diagram id="YNpwUXXwm9EvdBAaevXf" name="状态1">
    <mxGraphModel dx="1259" dy="650" grid="1" gridSize="10" guides="1" tooltips="1" connect="1" arrows="1" fold="1" page="1" pageScale="1" pageWidth="827" pageHeight="1169" math="0" shadow="0">
      <root>
        <mxCell id="0" />
        <mxCell id="1" parent="0" />
        <mxCell id="856pwh_PUm1gsFC4cgHy-1" value="" style="edgeStyle=orthogonalEdgeStyle;rounded=1;orthogonalLoop=1;jettySize=auto;html=1;" edge="1" parent="1" source="DJEoK-It7SEqSjL8FIee-2" target="DJEoK-It7SEqSjL8FIee-4">
          <mxGeometry relative="1" as="geometry" />
        </mxCell>
        <mxCell id="DJEoK-It7SEqSjL8FIee-2" value="操作A" style="rounded=0;whiteSpace=wrap;html=1;fillColor=#d5e8d4;strokeColor=#82b366;" vertex="1" parent="1">
          <mxGeometry x="240" y="120" width="80" height="40" as="geometry" />
        </mxCell>
        <mxCell id="856pwh_PUm1gsFC4cgHy-2" value="" style="edgeStyle=orthogonalEdgeStyle;rounded=1;orthogonalLoop=1;jettySize=auto;html=1;" edge="1" parent="1" source="DJEoK-It7SEqSjL8FIee-4" target="DJEoK-It7SEqSjL8FIee-12">
          <mxGeometry relative="1" as="geometry" />
        </mxCell>
        <mxCell id="DJEoK-It7SEqSjL8FIee-4" value="操作B" style="rounded=0;whiteSpace=wrap;html=1;fillColor=#d5e8d4;strokeColor=#82b366;" vertex="1" parent="1">
          <mxGeometry x="240" y="240" width="80" height="40" as="geometry" />
        </mxCell>
        <mxCell id="856pwh_PUm1gsFC4cgHy-3" value="" style="edgeStyle=orthogonalEdgeStyle;rounded=1;orthogonalLoop=1;jettySize=auto;html=1;" edge="1" parent="1" source="DJEoK-It7SEqSjL8FIee-12" target="DJEoK-It7SEqSjL8FIee-16">
          <mxGeometry relative="1" as="geometry" />
        </mxCell>
        <mxCell id="DJEoK-It7SEqSjL8FIee-12" value="操作C" style="rounded=0;whiteSpace=wrap;html=1;fillColor=#d5e8d4;strokeColor=#82b366;" vertex="1" parent="1">
          <mxGeometry x="240" y="360" width="80" height="40" as="geometry" />
        </mxCell>
        <mxCell id="DJEoK-It7SEqSjL8FIee-16" value="成功" style="strokeWidth=2;html=1;shape=mxgraph.flowchart.terminator;whiteSpace=wrap;" vertex="1" parent="1">
          <mxGeometry x="242" y="480" width="76" height="40" as="geometry" />
        </mxCell>
        <mxCell id="DJEoK-It7SEqSjL8FIee-25" style="edgeStyle=orthogonalEdgeStyle;rounded=1;orthogonalLoop=1;jettySize=auto;html=1;entryX=0.5;entryY=0;entryDx=0;entryDy=0;" edge="1" parent="1" source="DJEoK-It7SEqSjL8FIee-26" target="DJEoK-It7SEqSjL8FIee-2">
          <mxGeometry relative="1" as="geometry" />
        </mxCell>
        <mxCell id="DJEoK-It7SEqSjL8FIee-26" value="开始" style="strokeWidth=2;html=1;shape=mxgraph.flowchart.start_1;whiteSpace=wrap;" vertex="1" parent="1">
          <mxGeometry x="240" y="50" width="80" height="40" as="geometry" />
        </mxCell>
      </root>
    </mxGraphModel>
  </diagram>
  <diagram id="ErW0lHJwFQQsXKAuY1EV" name="状态2">
    <mxGraphModel dx="1259" dy="650" grid="1" gridSize="10" guides="1" tooltips="1" connect="1" arrows="1" fold="1" page="1" pageScale="1" pageWidth="827" pageHeight="1169" math="0" shadow="0">
      <root>
        <mxCell id="0" />
        <mxCell id="1" parent="0" />
        <mxCell id="b2dlkDvs61bygUcDKjAK-1" value="" style="edgeStyle=orthogonalEdgeStyle;rounded=1;orthogonalLoop=1;jettySize=auto;html=1;" edge="1" parent="1" source="b2dlkDvs61bygUcDKjAK-2" target="b2dlkDvs61bygUcDKjAK-7">
          <mxGeometry relative="1" as="geometry" />
        </mxCell>
        <mxCell id="b2dlkDvs61bygUcDKjAK-2" value="操作A" style="rounded=0;whiteSpace=wrap;html=1;fillColor=#d5e8d4;strokeColor=#82b366;" vertex="1" parent="1">
          <mxGeometry x="240" y="120" width="80" height="40" as="geometry" />
        </mxCell>
        <mxCell id="b2dlkDvs61bygUcDKjAK-3" style="edgeStyle=orthogonalEdgeStyle;rounded=1;orthogonalLoop=1;jettySize=auto;html=1;entryX=0.5;entryY=0;entryDx=0;entryDy=0;" edge="1" parent="1" source="b2dlkDvs61bygUcDKjAK-4" target="b2dlkDvs61bygUcDKjAK-10">
          <mxGeometry relative="1" as="geometry" />
        </mxCell>
        <mxCell id="b2dlkDvs61bygUcDKjAK-4" value="操作B" style="rounded=0;whiteSpace=wrap;html=1;fillColor=#d5e8d4;strokeColor=#82b366;" vertex="1" parent="1">
          <mxGeometry x="240" y="240" width="80" height="40" as="geometry" />
        </mxCell>
        <mxCell id="b2dlkDvs61bygUcDKjAK-5" style="edgeStyle=orthogonalEdgeStyle;rounded=1;orthogonalLoop=1;jettySize=auto;html=1;entryX=0.5;entryY=0;entryDx=0;entryDy=0;" edge="1" parent="1" source="b2dlkDvs61bygUcDKjAK-7" target="b2dlkDvs61bygUcDKjAK-4">
          <mxGeometry relative="1" as="geometry" />
        </mxCell>
        <mxCell id="b2dlkDvs61bygUcDKjAK-6" style="edgeStyle=orthogonalEdgeStyle;rounded=1;orthogonalLoop=1;jettySize=auto;html=1;entryX=0;entryY=0.5;entryDx=0;entryDy=0;entryPerimeter=0;" edge="1" parent="1" source="b2dlkDvs61bygUcDKjAK-7" target="b2dlkDvs61bygUcDKjAK-17">
          <mxGeometry relative="1" as="geometry" />
        </mxCell>
        <mxCell id="b2dlkDvs61bygUcDKjAK-7" value="成功?" style="rhombus;whiteSpace=wrap;html=1;" vertex="1" parent="1">
          <mxGeometry x="240" y="180" width="80" height="40" as="geometry" />
        </mxCell>
        <mxCell id="b2dlkDvs61bygUcDKjAK-8" style="edgeStyle=orthogonalEdgeStyle;rounded=1;orthogonalLoop=1;jettySize=auto;html=1;entryX=0.5;entryY=0;entryDx=0;entryDy=0;" edge="1" parent="1" source="b2dlkDvs61bygUcDKjAK-10" target="b2dlkDvs61bygUcDKjAK-12">
          <mxGeometry relative="1" as="geometry">
            <mxPoint x="280" y="350" as="targetPoint" />
          </mxGeometry>
        </mxCell>
        <mxCell id="b2dlkDvs61bygUcDKjAK-9" style="edgeStyle=orthogonalEdgeStyle;rounded=1;orthogonalLoop=1;jettySize=auto;html=1;entryX=0.5;entryY=1;entryDx=0;entryDy=0;" edge="1" parent="1" source="b2dlkDvs61bygUcDKjAK-10" target="b2dlkDvs61bygUcDKjAK-19">
          <mxGeometry relative="1" as="geometry" />
        </mxCell>
        <mxCell id="b2dlkDvs61bygUcDKjAK-10" value="成功?" style="rhombus;whiteSpace=wrap;html=1;" vertex="1" parent="1">
          <mxGeometry x="240" y="300" width="80" height="40" as="geometry" />
        </mxCell>
        <mxCell id="b2dlkDvs61bygUcDKjAK-11" style="edgeStyle=orthogonalEdgeStyle;rounded=1;orthogonalLoop=1;jettySize=auto;html=1;entryX=0.5;entryY=0;entryDx=0;entryDy=0;" edge="1" parent="1" source="b2dlkDvs61bygUcDKjAK-12" target="b2dlkDvs61bygUcDKjAK-15">
          <mxGeometry relative="1" as="geometry" />
        </mxCell>
        <mxCell id="b2dlkDvs61bygUcDKjAK-12" value="操作C" style="rounded=0;whiteSpace=wrap;html=1;fillColor=#d5e8d4;strokeColor=#82b366;" vertex="1" parent="1">
          <mxGeometry x="240" y="360" width="80" height="40" as="geometry" />
        </mxCell>
        <mxCell id="b2dlkDvs61bygUcDKjAK-13" style="edgeStyle=orthogonalEdgeStyle;rounded=1;orthogonalLoop=1;jettySize=auto;html=1;entryX=0.5;entryY=0;entryDx=0;entryDy=0;entryPerimeter=0;" edge="1" parent="1" source="b2dlkDvs61bygUcDKjAK-15" target="b2dlkDvs61bygUcDKjAK-16">
          <mxGeometry relative="1" as="geometry" />
        </mxCell>
        <mxCell id="b2dlkDvs61bygUcDKjAK-14" style="edgeStyle=orthogonalEdgeStyle;rounded=1;orthogonalLoop=1;jettySize=auto;html=1;entryX=0.5;entryY=1;entryDx=0;entryDy=0;" edge="1" parent="1" source="b2dlkDvs61bygUcDKjAK-15" target="b2dlkDvs61bygUcDKjAK-21">
          <mxGeometry relative="1" as="geometry" />
        </mxCell>
        <mxCell id="b2dlkDvs61bygUcDKjAK-15" value="成功?" style="rhombus;whiteSpace=wrap;html=1;" vertex="1" parent="1">
          <mxGeometry x="240" y="420" width="80" height="40" as="geometry" />
        </mxCell>
        <mxCell id="b2dlkDvs61bygUcDKjAK-16" value="成功" style="strokeWidth=2;html=1;shape=mxgraph.flowchart.terminator;whiteSpace=wrap;" vertex="1" parent="1">
          <mxGeometry x="242" y="480" width="76" height="40" as="geometry" />
        </mxCell>
        <mxCell id="b2dlkDvs61bygUcDKjAK-17" value="失败" style="strokeWidth=2;html=1;shape=mxgraph.flowchart.terminator;whiteSpace=wrap;" vertex="1" parent="1">
          <mxGeometry x="360" y="180" width="80" height="40" as="geometry" />
        </mxCell>
        <mxCell id="b2dlkDvs61bygUcDKjAK-18" style="edgeStyle=orthogonalEdgeStyle;rounded=1;orthogonalLoop=1;jettySize=auto;html=1;exitX=0.5;exitY=0;exitDx=0;exitDy=0;entryX=0.5;entryY=1;entryDx=0;entryDy=0;entryPerimeter=0;" edge="1" parent="1" source="b2dlkDvs61bygUcDKjAK-19" target="b2dlkDvs61bygUcDKjAK-17">
          <mxGeometry relative="1" as="geometry" />
        </mxCell>
        <mxCell id="b2dlkDvs61bygUcDKjAK-19" value="反操作A" style="rounded=0;whiteSpace=wrap;html=1;fillColor=#f8cecc;strokeColor=#b85450;" vertex="1" parent="1">
          <mxGeometry x="360" y="240" width="80" height="40" as="geometry" />
        </mxCell>
        <mxCell id="b2dlkDvs61bygUcDKjAK-20" style="edgeStyle=orthogonalEdgeStyle;rounded=1;orthogonalLoop=1;jettySize=auto;html=1;entryX=0.5;entryY=1;entryDx=0;entryDy=0;" edge="1" parent="1" source="b2dlkDvs61bygUcDKjAK-21" target="b2dlkDvs61bygUcDKjAK-19">
          <mxGeometry relative="1" as="geometry" />
        </mxCell>
        <mxCell id="b2dlkDvs61bygUcDKjAK-21" value="反操作B" style="rounded=0;whiteSpace=wrap;html=1;fillColor=#f8cecc;strokeColor=#b85450;" vertex="1" parent="1">
          <mxGeometry x="360" y="360" width="80" height="40" as="geometry" />
        </mxCell>
        <mxCell id="b2dlkDvs61bygUcDKjAK-22" style="edgeStyle=orthogonalEdgeStyle;rounded=1;orthogonalLoop=1;jettySize=auto;html=1;entryX=0.5;entryY=0;entryDx=0;entryDy=0;" edge="1" parent="1" source="b2dlkDvs61bygUcDKjAK-23" target="b2dlkDvs61bygUcDKjAK-2">
          <mxGeometry relative="1" as="geometry" />
        </mxCell>
        <mxCell id="b2dlkDvs61bygUcDKjAK-23" value="开始" style="strokeWidth=2;html=1;shape=mxgraph.flowchart.start_1;whiteSpace=wrap;" vertex="1" parent="1">
          <mxGeometry x="240" y="50" width="80" height="40" as="geometry" />
        </mxCell>
      </root>
    </mxGraphModel>
  </diagram>
  <diagram id="ReqX6_nE8O-LmcICIl0k" name="状态3">
    <mxGraphModel dx="1259" dy="701" grid="1" gridSize="10" guides="1" tooltips="1" connect="1" arrows="1" fold="1" page="1" pageScale="1" pageWidth="827" pageHeight="1169" math="0" shadow="0">
      <root>
        <mxCell id="0" />
        <mxCell id="1" parent="0" />
        <mxCell id="vVSNmCFi9JHZCys0v8pX-8" value="" style="edgeStyle=orthogonalEdgeStyle;rounded=1;orthogonalLoop=1;jettySize=auto;html=1;" edge="1" parent="1" source="vVSNmCFi9JHZCys0v8pX-1" target="vVSNmCFi9JHZCys0v8pX-3">
          <mxGeometry relative="1" as="geometry" />
        </mxCell>
        <mxCell id="vVSNmCFi9JHZCys0v8pX-1" value="操作A" style="rounded=0;whiteSpace=wrap;html=1;fillColor=#d5e8d4;strokeColor=#82b366;" vertex="1" parent="1">
          <mxGeometry x="240" y="120" width="80" height="40" as="geometry" />
        </mxCell>
        <mxCell id="vVSNmCFi9JHZCys0v8pX-11" style="edgeStyle=orthogonalEdgeStyle;rounded=1;orthogonalLoop=1;jettySize=auto;html=1;entryX=0.5;entryY=0;entryDx=0;entryDy=0;" edge="1" parent="1" source="vVSNmCFi9JHZCys0v8pX-2" target="vVSNmCFi9JHZCys0v8pX-4">
          <mxGeometry relative="1" as="geometry" />
        </mxCell>
        <mxCell id="vVSNmCFi9JHZCys0v8pX-2" value="操作B" style="rounded=0;whiteSpace=wrap;html=1;fillColor=#d5e8d4;strokeColor=#82b366;" vertex="1" parent="1">
          <mxGeometry x="240" y="240" width="80" height="40" as="geometry" />
        </mxCell>
        <mxCell id="vVSNmCFi9JHZCys0v8pX-10" style="edgeStyle=orthogonalEdgeStyle;rounded=1;orthogonalLoop=1;jettySize=auto;html=1;entryX=0.5;entryY=0;entryDx=0;entryDy=0;" edge="1" parent="1" source="vVSNmCFi9JHZCys0v8pX-3" target="vVSNmCFi9JHZCys0v8pX-2">
          <mxGeometry relative="1" as="geometry" />
        </mxCell>
        <mxCell id="vVSNmCFi9JHZCys0v8pX-17" style="edgeStyle=orthogonalEdgeStyle;rounded=1;orthogonalLoop=1;jettySize=auto;html=1;entryX=0;entryY=0.5;entryDx=0;entryDy=0;entryPerimeter=0;" edge="1" parent="1" source="vVSNmCFi9JHZCys0v8pX-3" target="vVSNmCFi9JHZCys0v8pX-15">
          <mxGeometry relative="1" as="geometry" />
        </mxCell>
        <mxCell id="vVSNmCFi9JHZCys0v8pX-3" value="成功?" style="rhombus;whiteSpace=wrap;html=1;" vertex="1" parent="1">
          <mxGeometry x="240" y="180" width="80" height="40" as="geometry" />
        </mxCell>
        <mxCell id="vVSNmCFi9JHZCys0v8pX-12" style="edgeStyle=orthogonalEdgeStyle;rounded=1;orthogonalLoop=1;jettySize=auto;html=1;entryX=0.5;entryY=0;entryDx=0;entryDy=0;" edge="1" parent="1" source="vVSNmCFi9JHZCys0v8pX-4" target="vVSNmCFi9JHZCys0v8pX-5">
          <mxGeometry relative="1" as="geometry">
            <mxPoint x="280" y="350" as="targetPoint" />
          </mxGeometry>
        </mxCell>
        <mxCell id="vVSNmCFi9JHZCys0v8pX-19" style="edgeStyle=orthogonalEdgeStyle;rounded=1;orthogonalLoop=1;jettySize=auto;html=1;entryX=0.5;entryY=1;entryDx=0;entryDy=0;" edge="1" parent="1" source="vVSNmCFi9JHZCys0v8pX-4" target="vVSNmCFi9JHZCys0v8pX-18">
          <mxGeometry relative="1" as="geometry" />
        </mxCell>
        <mxCell id="vVSNmCFi9JHZCys0v8pX-4" value="成功?" style="rhombus;whiteSpace=wrap;html=1;" vertex="1" parent="1">
          <mxGeometry x="240" y="300" width="80" height="40" as="geometry" />
        </mxCell>
        <mxCell id="vVSNmCFi9JHZCys0v8pX-13" style="edgeStyle=orthogonalEdgeStyle;rounded=1;orthogonalLoop=1;jettySize=auto;html=1;entryX=0.5;entryY=0;entryDx=0;entryDy=0;" edge="1" parent="1" source="vVSNmCFi9JHZCys0v8pX-5" target="vVSNmCFi9JHZCys0v8pX-6">
          <mxGeometry relative="1" as="geometry" />
        </mxCell>
        <mxCell id="vVSNmCFi9JHZCys0v8pX-5" value="操作C" style="rounded=0;whiteSpace=wrap;html=1;fillColor=#d5e8d4;strokeColor=#82b366;" vertex="1" parent="1">
          <mxGeometry x="240" y="360" width="80" height="40" as="geometry" />
        </mxCell>
        <mxCell id="vVSNmCFi9JHZCys0v8pX-16" style="edgeStyle=orthogonalEdgeStyle;rounded=1;orthogonalLoop=1;jettySize=auto;html=1;entryX=0.5;entryY=0;entryDx=0;entryDy=0;entryPerimeter=0;" edge="1" parent="1" source="vVSNmCFi9JHZCys0v8pX-6" target="vVSNmCFi9JHZCys0v8pX-14">
          <mxGeometry relative="1" as="geometry" />
        </mxCell>
        <mxCell id="vVSNmCFi9JHZCys0v8pX-22" style="edgeStyle=orthogonalEdgeStyle;rounded=1;orthogonalLoop=1;jettySize=auto;html=1;entryX=0.5;entryY=1;entryDx=0;entryDy=0;" edge="1" parent="1" source="vVSNmCFi9JHZCys0v8pX-6" target="vVSNmCFi9JHZCys0v8pX-21">
          <mxGeometry relative="1" as="geometry" />
        </mxCell>
        <mxCell id="vVSNmCFi9JHZCys0v8pX-6" value="成功?" style="rhombus;whiteSpace=wrap;html=1;" vertex="1" parent="1">
          <mxGeometry x="240" y="420" width="80" height="40" as="geometry" />
        </mxCell>
        <mxCell id="vVSNmCFi9JHZCys0v8pX-14" value="成功" style="strokeWidth=2;html=1;shape=mxgraph.flowchart.terminator;whiteSpace=wrap;" vertex="1" parent="1">
          <mxGeometry x="242" y="480" width="76" height="40" as="geometry" />
        </mxCell>
        <mxCell id="vVSNmCFi9JHZCys0v8pX-15" value="失败" style="strokeWidth=2;html=1;shape=mxgraph.flowchart.terminator;whiteSpace=wrap;" vertex="1" parent="1">
          <mxGeometry x="360" y="180" width="80" height="40" as="geometry" />
        </mxCell>
        <mxCell id="vVSNmCFi9JHZCys0v8pX-20" style="edgeStyle=orthogonalEdgeStyle;rounded=1;orthogonalLoop=1;jettySize=auto;html=1;exitX=0.5;exitY=0;exitDx=0;exitDy=0;entryX=0.5;entryY=1;entryDx=0;entryDy=0;entryPerimeter=0;" edge="1" parent="1" source="vVSNmCFi9JHZCys0v8pX-18" target="vVSNmCFi9JHZCys0v8pX-15">
          <mxGeometry relative="1" as="geometry" />
        </mxCell>
        <mxCell id="vVSNmCFi9JHZCys0v8pX-24" style="edgeStyle=orthogonalEdgeStyle;rounded=1;orthogonalLoop=1;jettySize=auto;html=1;entryX=0;entryY=0.5;entryDx=0;entryDy=0;dashed=1;" edge="1" parent="1" source="vVSNmCFi9JHZCys0v8pX-18" target="vVSNmCFi9JHZCys0v8pX-23">
          <mxGeometry relative="1" as="geometry" />
        </mxCell>
        <mxCell id="vVSNmCFi9JHZCys0v8pX-18" value="反操作A" style="rounded=0;whiteSpace=wrap;html=1;fillColor=#f8cecc;strokeColor=#b85450;" vertex="1" parent="1">
          <mxGeometry x="360" y="240" width="80" height="40" as="geometry" />
        </mxCell>
        <mxCell id="vVSNmCFi9JHZCys0v8pX-27" style="edgeStyle=orthogonalEdgeStyle;rounded=1;orthogonalLoop=1;jettySize=auto;html=1;entryX=0.5;entryY=1;entryDx=0;entryDy=0;" edge="1" parent="1" source="vVSNmCFi9JHZCys0v8pX-21" target="vVSNmCFi9JHZCys0v8pX-18">
          <mxGeometry relative="1" as="geometry" />
        </mxCell>
        <mxCell id="vVSNmCFi9JHZCys0v8pX-29" value="" style="edgeStyle=orthogonalEdgeStyle;rounded=1;orthogonalLoop=1;jettySize=auto;html=1;dashed=1;" edge="1" parent="1" source="vVSNmCFi9JHZCys0v8pX-21" target="vVSNmCFi9JHZCys0v8pX-28">
          <mxGeometry relative="1" as="geometry" />
        </mxCell>
        <mxCell id="vVSNmCFi9JHZCys0v8pX-21" value="反操作B" style="rounded=0;whiteSpace=wrap;html=1;fillColor=#f8cecc;strokeColor=#b85450;" vertex="1" parent="1">
          <mxGeometry x="360" y="360" width="80" height="40" as="geometry" />
        </mxCell>
        <mxCell id="vVSNmCFi9JHZCys0v8pX-23" value="成功?" style="rhombus;whiteSpace=wrap;html=1;dashed=1;" vertex="1" parent="1">
          <mxGeometry x="480" y="240" width="80" height="40" as="geometry" />
        </mxCell>
        <mxCell id="vVSNmCFi9JHZCys0v8pX-26" style="edgeStyle=orthogonalEdgeStyle;rounded=1;orthogonalLoop=1;jettySize=auto;html=1;entryX=0.5;entryY=0;entryDx=0;entryDy=0;" edge="1" parent="1" source="vVSNmCFi9JHZCys0v8pX-25" target="vVSNmCFi9JHZCys0v8pX-1">
          <mxGeometry relative="1" as="geometry" />
        </mxCell>
        <mxCell id="vVSNmCFi9JHZCys0v8pX-25" value="开始" style="strokeWidth=2;html=1;shape=mxgraph.flowchart.start_1;whiteSpace=wrap;" vertex="1" parent="1">
          <mxGeometry x="240" y="50" width="80" height="40" as="geometry" />
        </mxCell>
        <mxCell id="vVSNmCFi9JHZCys0v8pX-28" value="成功?" style="rhombus;whiteSpace=wrap;html=1;dashed=1;" vertex="1" parent="1">
          <mxGeometry x="480" y="360" width="80" height="40" as="geometry" />
        </mxCell>
      </root>
    </mxGraphModel>
  </diagram>
  <diagram id="lsrBH8bZDizjCWGumxrH" name="第 5 页">
    <mxGraphModel dx="1259" dy="701" grid="1" gridSize="10" guides="1" tooltips="1" connect="1" arrows="1" fold="1" page="1" pageScale="1" pageWidth="827" pageHeight="1169" math="0" shadow="0">
      <root>
        <mxCell id="0" />
        <mxCell id="1" parent="0" />
        <mxCell id="m-tAx31zvRslBteSbM-b-11" style="edgeStyle=orthogonalEdgeStyle;rounded=1;orthogonalLoop=1;jettySize=auto;html=1;" edge="1" parent="1" source="m-tAx31zvRslBteSbM-b-1" target="m-tAx31zvRslBteSbM-b-2">
          <mxGeometry relative="1" as="geometry" />
        </mxCell>
        <mxCell id="m-tAx31zvRslBteSbM-b-1" value="源状态A" style="rounded=0;whiteSpace=wrap;html=1;dashed=1;" vertex="1" parent="1">
          <mxGeometry x="160" y="200" width="80" height="40" as="geometry" />
        </mxCell>
        <mxCell id="m-tAx31zvRslBteSbM-b-20" style="edgeStyle=orthogonalEdgeStyle;rounded=1;orthogonalLoop=1;jettySize=auto;html=1;entryX=0;entryY=0.5;entryDx=0;entryDy=0;" edge="1" parent="1" source="m-tAx31zvRslBteSbM-b-2" target="m-tAx31zvRslBteSbM-b-14">
          <mxGeometry relative="1" as="geometry">
            <Array as="points">
              <mxPoint x="200" y="420" />
              <mxPoint x="100" y="420" />
              <mxPoint x="100" y="80" />
            </Array>
          </mxGeometry>
        </mxCell>
        <mxCell id="m-tAx31zvRslBteSbM-b-2" value="目标状态A" style="rounded=0;whiteSpace=wrap;html=1;dashed=1;" vertex="1" parent="1">
          <mxGeometry x="160" y="360" width="80" height="40" as="geometry" />
        </mxCell>
        <mxCell id="m-tAx31zvRslBteSbM-b-12" style="edgeStyle=orthogonalEdgeStyle;rounded=1;orthogonalLoop=1;jettySize=auto;html=1;" edge="1" parent="1" source="m-tAx31zvRslBteSbM-b-3" target="m-tAx31zvRslBteSbM-b-4">
          <mxGeometry relative="1" as="geometry" />
        </mxCell>
        <mxCell id="m-tAx31zvRslBteSbM-b-3" value="源状态B" style="rounded=0;whiteSpace=wrap;html=1;dashed=1;" vertex="1" parent="1">
          <mxGeometry x="280" y="200" width="80" height="40" as="geometry" />
        </mxCell>
        <mxCell id="m-tAx31zvRslBteSbM-b-21" style="edgeStyle=orthogonalEdgeStyle;rounded=1;orthogonalLoop=1;jettySize=auto;html=1;entryX=0;entryY=0.5;entryDx=0;entryDy=0;" edge="1" parent="1" source="m-tAx31zvRslBteSbM-b-4" target="m-tAx31zvRslBteSbM-b-14">
          <mxGeometry relative="1" as="geometry">
            <Array as="points">
              <mxPoint x="320" y="420" />
              <mxPoint x="100" y="420" />
              <mxPoint x="100" y="80" />
            </Array>
          </mxGeometry>
        </mxCell>
        <mxCell id="m-tAx31zvRslBteSbM-b-4" value="目标状态B" style="rounded=0;whiteSpace=wrap;html=1;dashed=1;" vertex="1" parent="1">
          <mxGeometry x="280" y="360" width="80" height="40" as="geometry" />
        </mxCell>
        <mxCell id="m-tAx31zvRslBteSbM-b-13" style="edgeStyle=orthogonalEdgeStyle;rounded=1;orthogonalLoop=1;jettySize=auto;html=1;entryX=0.5;entryY=0;entryDx=0;entryDy=0;" edge="1" parent="1" source="m-tAx31zvRslBteSbM-b-5" target="m-tAx31zvRslBteSbM-b-6">
          <mxGeometry relative="1" as="geometry" />
        </mxCell>
        <mxCell id="m-tAx31zvRslBteSbM-b-5" value="源状态C" style="rounded=0;whiteSpace=wrap;html=1;dashed=1;" vertex="1" parent="1">
          <mxGeometry x="400" y="200" width="80" height="40" as="geometry" />
        </mxCell>
        <mxCell id="m-tAx31zvRslBteSbM-b-22" style="edgeStyle=orthogonalEdgeStyle;rounded=1;orthogonalLoop=1;jettySize=auto;html=1;entryX=0;entryY=0.5;entryDx=0;entryDy=0;startArrow=none;" edge="1" parent="1" source="m-tAx31zvRslBteSbM-b-24" target="m-tAx31zvRslBteSbM-b-14">
          <mxGeometry relative="1" as="geometry">
            <Array as="points">
              <mxPoint x="100" y="80" />
            </Array>
          </mxGeometry>
        </mxCell>
        <mxCell id="m-tAx31zvRslBteSbM-b-6" value="目标状态C" style="rounded=0;whiteSpace=wrap;html=1;dashed=1;" vertex="1" parent="1">
          <mxGeometry x="400" y="360" width="80" height="40" as="geometry" />
        </mxCell>
        <mxCell id="m-tAx31zvRslBteSbM-b-7" value="操作A" style="rounded=0;whiteSpace=wrap;html=1;fillColor=#d5e8d4;strokeColor=#82b366;" vertex="1" parent="1">
          <mxGeometry x="160" y="280" width="80" height="40" as="geometry" />
        </mxCell>
        <mxCell id="m-tAx31zvRslBteSbM-b-8" value="操作B" style="rounded=0;whiteSpace=wrap;html=1;fillColor=#d5e8d4;strokeColor=#82b366;" vertex="1" parent="1">
          <mxGeometry x="280" y="280" width="80" height="40" as="geometry" />
        </mxCell>
        <mxCell id="m-tAx31zvRslBteSbM-b-9" value="操作C" style="rounded=0;whiteSpace=wrap;html=1;fillColor=#d5e8d4;strokeColor=#82b366;" vertex="1" parent="1">
          <mxGeometry x="400" y="280" width="80" height="40" as="geometry" />
        </mxCell>
        <mxCell id="m-tAx31zvRslBteSbM-b-19" style="edgeStyle=orthogonalEdgeStyle;rounded=1;orthogonalLoop=1;jettySize=auto;html=1;exitX=0.5;exitY=1;exitDx=0;exitDy=0;entryX=0.5;entryY=0;entryDx=0;entryDy=0;" edge="1" parent="1" source="m-tAx31zvRslBteSbM-b-14" target="m-tAx31zvRslBteSbM-b-15">
          <mxGeometry relative="1" as="geometry" />
        </mxCell>
        <mxCell id="m-tAx31zvRslBteSbM-b-14" value="状态比较" style="rounded=0;whiteSpace=wrap;html=1;" vertex="1" parent="1">
          <mxGeometry x="280" y="60" width="80" height="40" as="geometry" />
        </mxCell>
        <mxCell id="m-tAx31zvRslBteSbM-b-16" style="edgeStyle=orthogonalEdgeStyle;rounded=1;orthogonalLoop=1;jettySize=auto;html=1;" edge="1" parent="1" source="m-tAx31zvRslBteSbM-b-15" target="m-tAx31zvRslBteSbM-b-1">
          <mxGeometry relative="1" as="geometry" />
        </mxCell>
        <mxCell id="m-tAx31zvRslBteSbM-b-17" style="edgeStyle=orthogonalEdgeStyle;rounded=1;orthogonalLoop=1;jettySize=auto;html=1;entryX=0.5;entryY=0;entryDx=0;entryDy=0;" edge="1" parent="1" source="m-tAx31zvRslBteSbM-b-15" target="m-tAx31zvRslBteSbM-b-3">
          <mxGeometry relative="1" as="geometry" />
        </mxCell>
        <mxCell id="m-tAx31zvRslBteSbM-b-18" style="edgeStyle=orthogonalEdgeStyle;rounded=1;orthogonalLoop=1;jettySize=auto;html=1;" edge="1" parent="1" source="m-tAx31zvRslBteSbM-b-15" target="m-tAx31zvRslBteSbM-b-5">
          <mxGeometry relative="1" as="geometry" />
        </mxCell>
        <mxCell id="m-tAx31zvRslBteSbM-b-15" value="选择" style="rhombus;whiteSpace=wrap;html=1;" vertex="1" parent="1">
          <mxGeometry x="280" y="120" width="80" height="40" as="geometry" />
        </mxCell>
        <mxCell id="m-tAx31zvRslBteSbM-b-25" value="" style="edgeStyle=orthogonalEdgeStyle;rounded=1;orthogonalLoop=1;jettySize=auto;html=1;entryX=0;entryY=0.5;entryDx=0;entryDy=0;endArrow=none;" edge="1" parent="1" source="m-tAx31zvRslBteSbM-b-6" target="m-tAx31zvRslBteSbM-b-24">
          <mxGeometry relative="1" as="geometry">
            <mxPoint x="440" y="400" as="sourcePoint" />
            <mxPoint x="280" y="80" as="targetPoint" />
            <Array as="points">
              <mxPoint x="440" y="420" />
              <mxPoint x="100" y="420" />
            </Array>
          </mxGeometry>
        </mxCell>
        <mxCell id="m-tAx31zvRslBteSbM-b-24" value="延时" style="strokeWidth=2;html=1;shape=mxgraph.flowchart.delay;whiteSpace=wrap;" vertex="1" parent="1">
          <mxGeometry x="60" y="200" width="80" height="40" as="geometry" />
        </mxCell>
      </root>
    </mxGraphModel>
  </diagram>
</mxfile>
